<svg width="23" height="23" viewBox="0 0 23 23" fill="none" xmlns="http://www.w3.org/2000/svg">
<path d="M12.9376 16.6751C13.9288 16.6751 14.8795 16.2813 15.5804 15.5804C16.2813 14.8795 16.6751 13.9288 16.6751 12.9376V3.73752C16.6751 2.74627 16.2813 1.79562 15.5804 1.0947C14.8795 0.393774 13.9288 0 12.9376 0H3.73752C2.74627 0 1.79562 0.393774 1.0947 1.0947C0.393774 1.79562 0 2.74627 0 3.73752V12.9376C0 13.9288 0.393774 14.8795 1.0947 15.5804C1.79562 16.2813 2.74627 16.6751 3.73752 16.6751H12.9376Z" fill="#C4C4C4"/>
<path d="M6.3252 17.8248H8.05021V19.2623C8.05021 20.3732 8.95181 21.2748 10.0627 21.2748H19.2628C19.7965 21.2748 20.3084 21.0628 20.6858 20.6854C21.0633 20.308 21.2753 19.7961 21.2753 19.2623V10.0623C21.2753 9.52852 21.0633 9.01663 20.6858 8.63921C20.3084 8.26179 19.7965 8.04976 19.2628 8.04976H17.8253V6.32475H19.2628C19.7536 6.32475 20.2396 6.42142 20.6931 6.60925C21.1465 6.79708 21.5585 7.07238 21.9056 7.41944C22.2527 7.7665 22.528 8.17852 22.7158 8.63198C22.9036 9.08544 23.0003 9.57145 23.0003 10.0623V19.2623C23.0003 19.7531 22.9036 20.2392 22.7158 20.6926C22.528 21.1461 22.2527 21.5581 21.9056 21.9052C21.5585 22.2522 21.1465 22.5275 20.6931 22.7154C20.2396 22.9032 19.7536 22.9999 19.2628 22.9999H10.0627C9.5719 22.9999 9.08589 22.9032 8.63243 22.7154C8.17897 22.5275 7.76695 22.2522 7.41989 21.9052C7.07283 21.5581 6.79753 21.1461 6.6097 20.6926C6.42187 20.2392 6.3252 19.7531 6.3252 19.2623V17.8248Z" fill="#C4C4C4"/>
</svg>
